{"asset":{"version":"2.0","generator":"VECTARY"},"nodes":[{"translation":[0,0,0],"scale":[1,1,1],"rotation":[-0.7071067811865475,0,0,0.7071067811865476],"name":"Sketchfab_model","children":[1]},{"translation":[0,0,0],"scale":[1,1,1],"rotation":[0,0,0,1],"name":"root","children":[2]},{"translation":[0,0,0],"scale":[1,1.0000000000000002,1.0000000000000002],"rotation":[0.7071067811865475,0,0,0.7071067811865476],"name":"GLTF_SceneRootNode","children":[3]},{"translation":[0,0,0],"scale":[1,1,1],"rotation":[0,0,0,1],"name":"Bowl_01_0","children":[4]},{"translation":[0,0,0],"scale":[1,1,1],"rotation":[0,0,0,1],"name":"Object_0","mesh":0}],"materials":[{"pbrMetallicRoughness":{"baseColorFactor":[1,0,0,0.46],"metallicFactor":1,"roughnessFactor":0.13},"name":"Material_Glass","emissiveFactor":[0,0,0],"extensions":{},"alphaMode":"BLEND","doubleSided":false}],"meshes":[{"primitives":[{"mode":4,"attributes":{"POSITION":1,"NORMAL":2},"material":0,"indices":0}]}],"accessors":[{"bufferView":0,"byteOffset":0,"componentType":5125,"count":47376,"type":"SCALAR"},{"bufferView":1,"byteOffset":0,"componentType":5126,"count":7898,"max":[0.05999547988176346,0.06492031365633011,0.05999671295285225],"min":[-0.05999625474214554,-0.00005747075192630291,-0.059995029121637344],"type":"VEC3"},{"bufferView":2,"byteOffset":0,"componentType":5126,"count":7898,"type":"VEC3"}],"bufferViews":[{"buffer":0,"byteOffset":0,"byteLength":189504,"target":34963},{"buffer":0,"byteOffset":189504,"byteLength":94776,"target":34962},{"buffer":0,"byteOffset":284280,"byteLength":94776,"target":34962}],"scene":0,"scenes":[{"nodes":[0],"name":"obj"}],"extensionsUsed":["KHR_texture_transform"],"buffers":[{"byteLength":379056,"uri":"obj.bin"}]}